<?xml version="1.0" encoding="UTF-8" standalone="no"?>
<!DOCTYPE svg PUBLIC "-//W3C//DTD SVG 1.1//EN" "http://www.w3.org/Graphics/SVG/1.1/DTD/svg11.dtd">
<svg width="100%" height="100%" viewBox="0 0 1839 115" version="1.1" xmlns="http://www.w3.org/2000/svg" xmlns:xlink="http://www.w3.org/1999/xlink" xml:space="preserve" xmlns:serif="http://www.serif.com/" style="fill-rule:evenodd;clip-rule:evenodd;stroke-linecap:round;stroke-linejoin:round;stroke-miterlimit:1.5;">
    <g transform="matrix(1,0,0,1,-103.412,-1753.98)">
        <g id="wordmark_white">
            <g transform="matrix(0.325194,0,0,0.325194,962.426,1274.65)">
                <g transform="matrix(410,0,0,410,-2662.05,1825.49)">
                    <path d="M0.087,-0.7L0.713,-0.7C0.723,-0.7 0.732,-0.696 0.739,-0.689C0.746,-0.682 0.75,-0.673 0.75,-0.663L0.75,-0.037C0.75,-0.027 0.746,-0.018 0.739,-0.011C0.732,-0.004 0.723,-0 0.713,-0L0.697,-0C0.687,-0 0.678,-0.004 0.671,-0.011C0.664,-0.018 0.66,-0.027 0.66,-0.037L0.66,-0.309C0.66,-0.319 0.656,-0.328 0.649,-0.335C0.642,-0.342 0.633,-0.346 0.623,-0.346L0.177,-0.346C0.167,-0.346 0.158,-0.342 0.151,-0.335C0.144,-0.328 0.14,-0.319 0.14,-0.309L0.14,-0.037C0.14,-0.027 0.136,-0.018 0.129,-0.011C0.122,-0.004 0.113,-0 0.103,-0L0.087,-0C0.077,-0 0.068,-0.004 0.061,-0.011C0.054,-0.018 0.05,-0.027 0.05,-0.037L0.05,-0.663C0.05,-0.673 0.054,-0.682 0.061,-0.689C0.068,-0.696 0.077,-0.7 0.087,-0.7ZM0.623,-0.61L0.177,-0.61C0.167,-0.61 0.158,-0.606 0.151,-0.599C0.144,-0.592 0.14,-0.583 0.14,-0.573L0.14,-0.473C0.14,-0.462 0.144,-0.454 0.151,-0.447C0.158,-0.44 0.167,-0.436 0.177,-0.436L0.623,-0.436C0.633,-0.436 0.642,-0.44 0.649,-0.447C0.656,-0.454 0.66,-0.462 0.66,-0.473L0.66,-0.573C0.66,-0.583 0.656,-0.592 0.649,-0.599C0.642,-0.606 0.633,-0.61 0.623,-0.61Z" style="fill:white;fill-rule:nonzero;"/>
                </g>
                <g transform="matrix(410,0,0,410,-1924.05,1825.49)">
                    <path d="M0.087,-0.7L0.713,-0.7C0.723,-0.7 0.732,-0.696 0.739,-0.689C0.746,-0.682 0.75,-0.673 0.75,-0.663L0.75,-0.647C0.75,-0.637 0.746,-0.628 0.739,-0.621C0.732,-0.614 0.723,-0.61 0.713,-0.61L0.177,-0.61C0.167,-0.61 0.158,-0.606 0.151,-0.599C0.144,-0.592 0.14,-0.583 0.14,-0.573L0.14,-0.127C0.14,-0.117 0.144,-0.108 0.151,-0.101C0.158,-0.094 0.167,-0.09 0.177,-0.09L0.713,-0.09C0.723,-0.09 0.732,-0.086 0.739,-0.079C0.746,-0.072 0.75,-0.063 0.75,-0.053L0.75,-0.037C0.75,-0.027 0.746,-0.018 0.739,-0.011C0.732,-0.004 0.723,-0 0.713,-0L0.087,-0C0.077,-0 0.068,-0.004 0.061,-0.011C0.054,-0.018 0.05,-0.027 0.05,-0.037L0.05,-0.663C0.05,-0.673 0.054,-0.682 0.061,-0.689C0.068,-0.696 0.077,-0.7 0.087,-0.7Z" style="fill:white;fill-rule:nonzero;"/>
                </g>
                <g transform="matrix(410,0,0,410,-1186.05,1825.49)">
                    <path d="M0.087,-0.7L0.713,-0.7C0.723,-0.7 0.732,-0.696 0.739,-0.689C0.746,-0.682 0.75,-0.673 0.75,-0.663L0.75,-0.647C0.75,-0.637 0.746,-0.628 0.739,-0.621C0.732,-0.614 0.723,-0.61 0.713,-0.61L0.177,-0.61C0.167,-0.61 0.158,-0.606 0.151,-0.599C0.144,-0.592 0.14,-0.583 0.14,-0.573L0.14,-0.473C0.14,-0.462 0.144,-0.454 0.151,-0.447C0.158,-0.44 0.167,-0.436 0.177,-0.436L0.713,-0.436C0.723,-0.436 0.732,-0.432 0.739,-0.425C0.746,-0.418 0.75,-0.409 0.75,-0.399L0.75,-0.383C0.75,-0.372 0.746,-0.364 0.739,-0.357C0.732,-0.349 0.723,-0.346 0.713,-0.346L0.177,-0.346C0.167,-0.346 0.158,-0.342 0.151,-0.335C0.144,-0.328 0.14,-0.319 0.14,-0.309L0.14,-0.127C0.14,-0.117 0.144,-0.108 0.151,-0.101C0.158,-0.094 0.167,-0.09 0.177,-0.09L0.713,-0.09C0.723,-0.09 0.732,-0.086 0.739,-0.079C0.746,-0.072 0.75,-0.063 0.75,-0.053L0.75,-0.037C0.75,-0.027 0.746,-0.018 0.739,-0.011C0.732,-0.004 0.723,-0 0.713,-0L0.087,-0C0.077,-0 0.068,-0.004 0.061,-0.011C0.054,-0.018 0.05,-0.027 0.05,-0.037L0.05,-0.663C0.05,-0.673 0.054,-0.682 0.061,-0.689C0.068,-0.696 0.077,-0.7 0.087,-0.7Z" style="fill:white;fill-rule:nonzero;"/>
                </g>
                <g transform="matrix(410,0,0,410,-448.047,1825.49)">
                    <path d="M0.087,-0.7L0.713,-0.7C0.723,-0.7 0.732,-0.696 0.739,-0.689C0.746,-0.682 0.75,-0.673 0.75,-0.663L0.75,-0.647C0.75,-0.637 0.746,-0.628 0.739,-0.621C0.732,-0.614 0.723,-0.61 0.713,-0.61L0.177,-0.61C0.167,-0.61 0.158,-0.606 0.151,-0.599C0.144,-0.592 0.14,-0.583 0.14,-0.573L0.14,-0.473C0.14,-0.462 0.144,-0.454 0.151,-0.447C0.158,-0.44 0.167,-0.436 0.177,-0.436L0.713,-0.436C0.723,-0.436 0.732,-0.432 0.739,-0.424C0.746,-0.416 0.75,-0.407 0.75,-0.396L0.75,-0.037C0.75,-0.027 0.746,-0.018 0.739,-0.011C0.732,-0.004 0.723,-0 0.713,-0L0.087,-0C0.077,-0 0.068,-0.004 0.061,-0.011C0.054,-0.018 0.05,-0.027 0.05,-0.037L0.05,-0.053C0.05,-0.063 0.054,-0.072 0.061,-0.079C0.068,-0.086 0.077,-0.09 0.087,-0.09L0.623,-0.09C0.633,-0.09 0.642,-0.094 0.649,-0.101C0.656,-0.108 0.66,-0.117 0.66,-0.127L0.66,-0.309C0.66,-0.319 0.656,-0.328 0.649,-0.335C0.642,-0.342 0.633,-0.346 0.623,-0.346L0.087,-0.346C0.077,-0.346 0.068,-0.349 0.061,-0.357C0.054,-0.364 0.05,-0.372 0.05,-0.383L0.05,-0.663C0.05,-0.673 0.054,-0.682 0.061,-0.689C0.068,-0.696 0.077,-0.7 0.087,-0.7Z" style="fill:white;fill-rule:nonzero;"/>
                </g>
            </g>
            <g transform="matrix(0.325194,0,0,0.325194,880.417,1274.65)">
                <g transform="matrix(410,0,0,410,699.953,1825.49)">
                    <path d="M0.087,-0.7L0.103,-0.7C0.113,-0.7 0.122,-0.696 0.129,-0.689C0.136,-0.682 0.14,-0.673 0.14,-0.663L0.14,-0.473C0.14,-0.462 0.144,-0.454 0.151,-0.447C0.158,-0.44 0.167,-0.436 0.177,-0.436L0.623,-0.436C0.633,-0.436 0.642,-0.44 0.649,-0.447C0.656,-0.454 0.66,-0.462 0.66,-0.473L0.66,-0.663C0.66,-0.673 0.664,-0.682 0.671,-0.689C0.678,-0.696 0.687,-0.7 0.697,-0.7L0.713,-0.7C0.723,-0.7 0.732,-0.696 0.739,-0.689C0.746,-0.682 0.75,-0.673 0.75,-0.663L0.75,-0.037C0.75,-0.027 0.746,-0.018 0.739,-0.011C0.732,-0.004 0.723,-0 0.713,-0L0.697,-0C0.687,-0 0.678,-0.004 0.671,-0.011C0.664,-0.018 0.66,-0.027 0.66,-0.037L0.66,-0.309C0.66,-0.319 0.656,-0.328 0.649,-0.335C0.642,-0.342 0.633,-0.346 0.623,-0.346L0.177,-0.346C0.167,-0.346 0.158,-0.342 0.151,-0.335C0.144,-0.328 0.14,-0.319 0.14,-0.309L0.14,-0.037C0.14,-0.027 0.136,-0.018 0.129,-0.011C0.122,-0.004 0.113,-0 0.103,-0L0.087,-0C0.077,-0 0.068,-0.004 0.061,-0.011C0.054,-0.018 0.05,-0.027 0.05,-0.037L0.05,-0.663C0.05,-0.673 0.054,-0.682 0.061,-0.689C0.068,-0.696 0.077,-0.7 0.087,-0.7Z" style="fill:white;fill-rule:nonzero;"/>
                </g>
                <g transform="matrix(410,0,0,410,1437.95,1825.49)">
                    <path d="M0.087,-0.7L0.103,-0.7C0.113,-0.7 0.122,-0.696 0.129,-0.689C0.136,-0.682 0.14,-0.673 0.14,-0.663L0.14,-0.037C0.14,-0.027 0.136,-0.018 0.129,-0.011C0.122,-0.004 0.113,-0 0.103,-0L0.087,-0C0.077,-0 0.068,-0.004 0.061,-0.011C0.054,-0.018 0.05,-0.027 0.05,-0.037L0.05,-0.663C0.05,-0.673 0.054,-0.682 0.061,-0.689C0.068,-0.696 0.077,-0.7 0.087,-0.7Z" style="fill:white;fill-rule:nonzero;"/>
                </g>
                <g transform="matrix(410,0,0,410,1925.85,1825.49)">
                    <path d="M0.087,-0.7L0.713,-0.7C0.723,-0.7 0.732,-0.696 0.739,-0.689C0.746,-0.682 0.75,-0.673 0.75,-0.663L0.75,-0.647C0.75,-0.637 0.746,-0.628 0.739,-0.621C0.732,-0.614 0.723,-0.61 0.713,-0.61L0.177,-0.61C0.167,-0.61 0.158,-0.606 0.151,-0.599C0.144,-0.592 0.14,-0.583 0.14,-0.573L0.14,-0.127C0.14,-0.117 0.144,-0.108 0.151,-0.101C0.158,-0.094 0.167,-0.09 0.177,-0.09L0.623,-0.09C0.633,-0.09 0.642,-0.094 0.649,-0.101C0.656,-0.108 0.66,-0.117 0.66,-0.127L0.66,-0.309C0.66,-0.319 0.656,-0.328 0.649,-0.335C0.642,-0.342 0.633,-0.346 0.623,-0.346L0.607,-0.346C0.597,-0.346 0.588,-0.349 0.581,-0.357C0.574,-0.364 0.57,-0.372 0.57,-0.383L0.57,-0.399C0.57,-0.409 0.574,-0.418 0.581,-0.425C0.588,-0.432 0.597,-0.436 0.607,-0.436L0.713,-0.436C0.723,-0.436 0.732,-0.432 0.739,-0.425C0.746,-0.418 0.75,-0.409 0.75,-0.399L0.75,-0.037C0.75,-0.027 0.746,-0.018 0.739,-0.011C0.732,-0.004 0.723,-0 0.713,-0L0.087,-0C0.077,-0 0.068,-0.004 0.061,-0.011C0.054,-0.018 0.05,-0.027 0.05,-0.037L0.05,-0.663C0.05,-0.673 0.054,-0.682 0.061,-0.689C0.068,-0.696 0.077,-0.7 0.087,-0.7Z" style="fill:white;fill-rule:nonzero;"/>
                </g>
                <g transform="matrix(410,0,0,410,2663.85,1825.49)">
                    <path d="M0.087,-0.7L0.103,-0.7C0.113,-0.7 0.122,-0.696 0.129,-0.689C0.136,-0.682 0.14,-0.673 0.14,-0.663L0.14,-0.473C0.14,-0.462 0.144,-0.454 0.151,-0.447C0.158,-0.44 0.167,-0.436 0.177,-0.436L0.623,-0.436C0.633,-0.436 0.642,-0.44 0.649,-0.447C0.656,-0.454 0.66,-0.462 0.66,-0.473L0.66,-0.663C0.66,-0.673 0.664,-0.682 0.671,-0.689C0.678,-0.696 0.687,-0.7 0.697,-0.7L0.713,-0.7C0.723,-0.7 0.732,-0.696 0.739,-0.689C0.746,-0.682 0.75,-0.673 0.75,-0.663L0.75,-0.037C0.75,-0.027 0.746,-0.018 0.739,-0.011C0.732,-0.004 0.723,-0 0.713,-0L0.697,-0C0.687,-0 0.678,-0.004 0.671,-0.011C0.664,-0.018 0.66,-0.027 0.66,-0.037L0.66,-0.309C0.66,-0.319 0.656,-0.328 0.649,-0.335C0.642,-0.342 0.633,-0.346 0.623,-0.346L0.177,-0.346C0.167,-0.346 0.158,-0.342 0.151,-0.335C0.144,-0.328 0.14,-0.319 0.14,-0.309L0.14,-0.037C0.14,-0.027 0.136,-0.018 0.129,-0.011C0.122,-0.004 0.113,-0 0.103,-0L0.087,-0C0.077,-0 0.068,-0.004 0.061,-0.011C0.054,-0.018 0.05,-0.027 0.05,-0.037L0.05,-0.663C0.05,-0.673 0.054,-0.682 0.061,-0.689C0.068,-0.696 0.077,-0.7 0.087,-0.7Z" style="fill:white;fill-rule:nonzero;"/>
                </g>
            </g>
            <g transform="matrix(0.406698,0,0,0.406698,1232.11,1151.39)">
                <g transform="matrix(0.387996,0.387996,-0.387996,0.387996,2225.34,767.358)">
                    <path d="M227.28,1631.77L306.823,1681.18L379.226,1635.32L308.624,1821.82L227.28,1631.77Z" style="fill:white;"/>
                </g>
                <g transform="matrix(1.05467,0,0,1.05467,-91.0784,-86.9992)">
                    <circle cx="1678.65" cy="1549.58" r="55.602" style="fill:none;stroke:white;stroke-width:13.27px;"/>
                </g>
            </g>
            <g transform="matrix(1.07705,0,0,1.52169,-125.304,-941.555)">
                <path d="M1379.76,1779.89L1356.32,1798" style="fill:none;stroke:white;stroke-width:10.62px;"/>
            </g>
            <g transform="matrix(-1.07705,0,0,1.52169,2846.83,-941.555)">
                <path d="M1379.76,1779.89L1356.32,1798" style="fill:none;stroke:white;stroke-width:10.62px;"/>
            </g>
        </g>
    </g>
</svg>
