<?xml version="1.0" encoding="UTF-8" standalone="no"?>
<!DOCTYPE svg PUBLIC "-//W3C//DTD SVG 1.1//EN" "http://www.w3.org/Graphics/SVG/1.1/DTD/svg11.dtd">
<svg width="100%" height="100%" viewBox="0 0 1560 1497" version="1.1" xmlns="http://www.w3.org/2000/svg" xmlns:xlink="http://www.w3.org/1999/xlink" xml:space="preserve" xmlns:serif="http://www.serif.com/" style="fill-rule:evenodd;clip-rule:evenodd;stroke-linecap:round;stroke-linejoin:round;stroke-miterlimit:1.5;">
    <g transform="matrix(1,0,0,1,-247.748,-180.071)">
        <g id="lovis_inverse">
            <g transform="matrix(0.503567,-0.758168,0.758168,0.503567,-982.034,896.966)">
                <path d="M238.206,1619.8L305.49,1673.45L396.737,1638.97L284.316,1812.42L238.206,1619.8Z" style="fill:none;stroke:white;stroke-width:16.41px;"/>
                <path d="M238.206,1619.8L305.49,1673.45L396.737,1638.97L284.316,1812.42L238.206,1619.8Z" style="fill:white;"/>
            </g>
            <path d="M1503.83,585.959C1528.59,589.521 1563.01,591.582 1601.01,585.09C1588.43,611.223 1571.79,625.188 1551.8,629.086L1503.83,585.959Z" style="fill:white;"/>
            <path d="M413.08,1011.44C319.96,1130.73 280.169,1286 387.191,1449.18C200.777,1334.63 241.004,1129.06 283.377,1014.37C307.359,949.456 352.546,892.853 413.08,842.209L413.08,708.277C413.08,672.551 432.14,639.538 463.08,621.675L964.387,332.245C995.327,314.382 1033.45,314.382 1064.39,332.245L1283.26,458.609C1492.82,380.662 1686.14,295.345 1806.83,180.071C1760.7,323.1 1654.99,414.835 1515.69,482.627C1615.88,482.627 1735.34,420.558 1806.83,378.059C1755.29,465.715 1645.44,536.592 1503.83,585.959L1565.69,621.675C1596.63,639.538 1615.69,672.551 1615.69,708.277L1615.69,1287.14C1615.69,1322.86 1596.63,1355.88 1565.69,1373.74L1064.39,1663.17C1033.45,1681.03 995.327,1681.03 964.387,1663.17L463.08,1373.74C432.14,1355.88 413.08,1322.86 413.08,1287.14L413.08,1011.44ZM421.574,1011.44L421.574,1287.14C421.574,1319.83 439.015,1350.04 467.327,1366.38L968.634,1655.81C996.946,1672.16 1031.83,1672.16 1060.14,1655.81L1561.45,1366.38C1589.76,1350.04 1607.2,1319.83 1607.2,1287.14L1607.2,708.277C1607.2,675.585 1589.76,645.377 1561.45,629.031L1499.59,593.315C1496.71,591.654 1495.06,588.469 1495.38,585.161C1495.69,581.854 1497.9,579.032 1501.04,577.939C1623.78,535.147 1722.5,476.255 1778.96,403.879C1705.92,444.395 1603.47,491.121 1515.69,491.121C1511.74,491.121 1508.31,488.389 1507.42,484.534C1506.53,480.679 1508.42,476.721 1511.98,474.989C1638.44,413.441 1736.99,332.04 1787.15,209.282C1665.01,313.727 1482.77,393.464 1286.22,466.57C1283.84,467.453 1281.2,467.231 1279.01,465.965L1060.14,339.601C1031.83,323.255 996.946,323.255 968.634,339.601L467.327,629.031C439.015,645.377 421.574,675.585 421.574,708.277L421.574,842.209C421.574,844.724 420.459,847.11 418.53,848.723C359.223,898.341 314.841,953.715 291.345,1017.31C252.608,1122.16 214.803,1305.04 359.677,1419.67C276.46,1265.39 317.688,1119.84 406.385,1006.21C408.616,1003.36 412.415,1002.23 415.844,1003.41C419.272,1004.59 421.574,1007.81 421.574,1011.44ZM1029.31,375.248L1545.99,673.551C1555.23,678.883 1560.91,688.738 1560.91,699.404L1560.91,1296.01C1560.91,1306.67 1555.23,1316.53 1545.99,1321.86L1029.31,1620.17C1020.08,1625.5 1008.7,1625.5 999.461,1620.17L482.784,1321.86C473.548,1316.53 467.858,1306.67 467.858,1296.01L467.858,699.404C467.858,688.738 473.548,678.883 482.784,673.551L999.461,375.248C1008.7,369.915 1020.08,369.915 1029.31,375.248ZM1025.07,382.604C1018.46,378.788 1010.32,378.788 1003.71,382.604L487.031,680.907C480.423,684.722 476.352,691.773 476.352,699.404L476.352,1296.01C476.352,1303.64 480.423,1310.69 487.031,1314.51L1003.71,1612.81C1010.32,1616.63 1018.46,1616.63 1025.07,1612.81L1541.74,1314.51C1548.35,1310.69 1552.42,1303.64 1552.42,1296.01L1552.42,699.404C1552.42,691.773 1548.35,684.722 1541.74,680.907L1025.07,382.604Z" style="fill:white;"/>
            <path d="M413.08,1011.44C319.96,1130.73 280.169,1286 387.191,1449.18C200.777,1334.63 241.004,1129.06 283.377,1014.37C307.359,949.456 352.546,892.853 413.08,842.209L413.08,708.277C413.08,672.551 432.14,639.538 463.08,621.675L964.387,332.245C995.327,314.382 1033.45,314.382 1064.39,332.245L1283.26,458.609C1492.82,380.662 1686.14,295.345 1806.83,180.071C1760.7,323.1 1654.99,414.835 1515.69,482.627C1615.88,482.627 1735.34,420.558 1806.83,378.059C1755.29,465.715 1645.44,536.592 1503.83,585.959L1565.69,621.675C1596.63,639.538 1615.69,672.551 1615.69,708.277L1615.69,1287.14C1615.69,1322.86 1596.63,1355.88 1565.69,1373.74L1064.39,1663.17C1033.45,1681.03 995.327,1681.03 964.387,1663.17L463.08,1373.74C432.14,1355.88 413.08,1322.86 413.08,1287.14L413.08,1011.44ZM1025.07,382.604C1018.46,378.788 1010.32,378.788 1003.71,382.604L487.031,680.907C480.423,684.722 476.352,691.773 476.352,699.404L476.352,1296.01C476.352,1303.64 480.423,1310.69 487.031,1314.51L1003.71,1612.81C1010.32,1616.63 1018.46,1616.63 1025.07,1612.81L1541.74,1314.51C1548.35,1310.69 1552.42,1303.64 1552.42,1296.01L1552.42,699.404C1552.42,691.773 1548.35,684.722 1541.74,680.907L1025.07,382.604Z" style="fill:white;"/>
            <path d="M1024.75,400.901L1526.06,690.331C1532.47,694.033 1536.42,700.874 1536.42,708.277L1536.42,1287.14C1536.42,1294.54 1532.47,1301.38 1526.06,1305.08L1024.75,1594.51C1018.34,1598.21 1010.44,1598.21 1004.02,1594.51L502.719,1305.08C496.307,1301.38 492.357,1294.54 492.357,1287.14L492.357,708.277C492.357,700.874 496.307,694.033 502.719,690.331L1004.02,400.901C1010.44,397.2 1018.34,397.2 1024.75,400.901ZM1346.47,757.71C1277.2,776.419 1193.17,758.888 1122.12,728.023L1137.39,719.209C1198.16,736.848 1367.49,699.992 1280.87,606.572C1186.83,505.16 1027.82,621.226 795.291,565.074C892.549,699.326 691.516,791.13 867.167,845.421C1028.98,895.433 1092.81,797.669 1062.26,762.583L1077.53,753.768C1130.99,794.79 1161.35,843.304 1128.94,883.295L1346.47,757.71ZM1289.26,776.977L1156.24,851.903C1162.17,814.305 1081.98,747.838 1071.92,746.161L1044.3,760.38C1068.22,787.85 1037.72,873.685 911.037,834.528C773.514,792.022 930.909,720.146 854.763,615.035C1036.82,658.998 1161.31,568.126 1234.94,647.525C1298.34,715.901 1191.71,727.442 1137.26,718.317L1123.83,718.317L1097.01,734.526C1152.64,758.691 1235.03,791.625 1289.26,776.977ZM985.592,1016.62L513.08,743.82L513.08,1287.14L985.592,1559.94L985.592,1016.62ZM1515.69,743.82C1515.69,743.82 1043.18,1016.62 1043.18,1016.62L1043.18,1559.94L1515.69,1287.14L1515.69,743.82Z" style="fill:white;"/>
            <g transform="matrix(24.014,-13.8645,-1.67433e-14,32.2767,993.997,934.078)">
                <path d="M12,14.669C10.536,14.669 9.331,13.464 9.331,12C9.331,10.536 10.536,9.331 12,9.331C13.464,9.331 14.669,10.536 14.669,12C14.669,13.464 13.464,14.669 12,14.669ZM11.412,13.217C12.372,13.217 13.162,12.427 13.162,11.467C13.162,10.507 12.372,9.717 11.412,9.717C10.452,9.717 9.662,10.507 9.662,11.467C9.662,12.427 10.452,13.217 11.412,13.217ZM7,19.669C5.536,19.669 4.331,18.464 4.331,17C4.331,15.536 5.536,14.331 7,14.331C8.464,14.331 9.669,15.536 9.669,17C9.669,18.464 8.464,19.669 7,19.669ZM6.412,18.217C7.372,18.217 8.162,17.427 8.162,16.467C8.162,15.507 7.372,14.717 6.412,14.717C5.452,14.717 4.662,15.507 4.662,16.467C4.662,17.427 5.452,18.217 6.412,18.217ZM17,9.669C15.536,9.669 14.331,8.464 14.331,7C14.331,5.536 15.536,4.331 17,4.331C18.464,4.331 19.669,5.536 19.669,7C19.669,8.464 18.464,9.669 17,9.669ZM16.412,8.217C17.372,8.217 18.162,7.427 18.162,6.467C18.162,5.507 17.372,4.717 16.412,4.717C15.452,4.717 14.662,5.507 14.662,6.467C14.662,7.427 15.452,8.217 16.412,8.217Z" style="fill:white;"/>
            </g>
            <g transform="matrix(24.654,14.234,9.06793e-15,31.0071,448.496,604.014)">
                <path d="M17,9.212C15.787,9.212 14.788,8.213 14.788,7C14.788,5.787 15.787,4.788 17,4.788C18.213,4.788 19.212,5.787 19.212,7C19.212,8.213 18.213,9.212 17,9.212ZM17.5,8C18.323,8 19,7.323 19,6.5C19,5.677 18.323,5 17.5,5C16.677,5 16,5.677 16,6.5C16,7.323 16.677,8 17.5,8ZM12,14.212C10.787,14.212 9.788,13.213 9.788,12C9.788,10.787 10.787,9.788 12,9.788C13.213,9.788 14.212,10.787 14.212,12C14.212,13.213 13.213,14.212 12,14.212ZM12.5,13C13.323,13 14,12.323 14,11.5C14,10.677 13.323,10 12.5,10C11.677,10 11,10.677 11,11.5C11,12.323 11.677,13 12.5,13ZM17,19.212C15.787,19.212 14.788,18.213 14.788,17C14.788,15.787 15.787,14.788 17,14.788C18.213,14.788 19.212,15.787 19.212,17C19.212,18.213 18.213,19.212 17,19.212ZM17.5,18C18.323,18 19,17.323 19,16.5C19,15.677 18.323,15 17.5,15C16.677,15 16,15.677 16,16.5C16,17.323 16.677,18 17.5,18ZM7,9.212C5.787,9.212 4.788,8.213 4.788,7C4.788,5.787 5.787,4.788 7,4.788C8.213,4.788 9.212,5.787 9.212,7C9.212,8.213 8.213,9.212 7,9.212ZM7.5,8C8.323,8 9,7.323 9,6.5C9,5.677 8.323,5 7.5,5C6.677,5 6,5.677 6,6.5C6,7.323 6.677,8 7.5,8ZM7,19.212C5.787,19.212 4.788,18.213 4.788,17C4.788,15.787 5.787,14.788 7,14.788C8.213,14.788 9.212,15.787 9.212,17C9.212,18.213 8.213,19.212 7,19.212ZM7.5,18C8.323,18 9,17.323 9,16.5C9,15.677 8.323,15 7.5,15C6.677,15 6,15.677 6,16.5C6,17.323 6.677,18 7.5,18Z" style="fill:white;"/>
            </g>
        </g>
    </g>
</svg>
